<svg xmlns="http://www.w3.org/2000/svg" viewBox="0 0 200 200">
  <defs>
    <linearGradient id="goldGradient" x1="0%" y1="0%" x2="100%" y2="100%">
      <stop offset="0%" style="stop-color:#FFD700;stop-opacity:1" />
      <stop offset="50%" style="stop-color:#FFA500;stop-opacity:1" />
      <stop offset="100%" style="stop-color:#FFD700;stop-opacity:1" />
    </linearGradient>
    <filter id="glow">
      <feGaussianBlur stdDeviation="2" result="coloredBlur"/>
      <feMerge>
        <feMergeNode in="coloredBlur"/>
        <feMergeNode in="SourceGraphic"/>
      </feMerge>
    </filter>
    <radialGradient id="laurelShine" cx="50%" cy="30%">
      <stop offset="0%" style="stop-color:#FFFACD;stop-opacity:0.8" />
      <stop offset="100%" style="stop-color:#DAA520;stop-opacity:1" />
    </radialGradient>
  </defs>
  
  <!-- Laurel wreath - left side -->
  <g fill="url(#laurelShine)" filter="url(#glow)">
    <!-- Left branch -->
    <path d="M 30,100 Q 25,85 20,70 Q 18,55 20,40 L 25,45 Q 23,60 28,75 Q 32,90 35,100 Z" />
    <ellipse cx="22" cy="42" rx="4" ry="6" transform="rotate(-25 22 42)" fill="#DAA520"/>
    <ellipse cx="20" cy="52" rx="4" ry="6" transform="rotate(-20 20 52)" fill="#DAA520"/>
    <ellipse cx="21" cy="62" rx="4" ry="6" transform="rotate(-15 21 62)" fill="#DAA520"/>
    <ellipse cx="24" cy="72" rx="4" ry="6" transform="rotate(-10 24 72)" fill="#DAA520"/>
    <ellipse cx="28" cy="82" rx="4" ry="6" transform="rotate(-5 28 82)" fill="#DAA520"/>
    <ellipse cx="32" cy="92" rx="4" ry="6" transform="rotate(0 32 92)" fill="#DAA520"/>
    
    <path d="M 30,100 Q 22,115 18,130 Q 15,145 18,160 L 23,155 Q 20,140 25,125 Q 30,110 35,100 Z" />
    <ellipse cx="20" cy="158" rx="4" ry="6" transform="rotate(25 20 158)" fill="#DAA520"/>
    <ellipse cx="20" cy="148" rx="4" ry="6" transform="rotate(20 20 148)" fill="#DAA520"/>
    <ellipse cx="21" cy="138" rx="4" ry="6" transform="rotate(15 21 138)" fill="#DAA520"/>
    <ellipse cx="24" cy="128" rx="4" ry="6" transform="rotate(10 24 128)" fill="#DAA520"/>
    <ellipse cx="28" cy="118" rx="4" ry="6" transform="rotate(5 28 118)" fill="#DAA520"/>
    <ellipse cx="32" cy="108" rx="4" ry="6" transform="rotate(0 32 108)" fill="#DAA520"/>
    
    <!-- Right branch -->
    <path d="M 170,100 Q 175,85 180,70 Q 182,55 180,40 L 175,45 Q 177,60 172,75 Q 168,90 165,100 Z" />
    <ellipse cx="178" cy="42" rx="4" ry="6" transform="rotate(25 178 42)" fill="#DAA520"/>
    <ellipse cx="180" cy="52" rx="4" ry="6" transform="rotate(20 180 52)" fill="#DAA520"/>
    <ellipse cx="179" cy="62" rx="4" ry="6" transform="rotate(15 179 62)" fill="#DAA520"/>
    <ellipse cx="176" cy="72" rx="4" ry="6" transform="rotate(10 176 72)" fill="#DAA520"/>
    <ellipse cx="172" cy="82" rx="4" ry="6" transform="rotate(5 172 82)" fill="#DAA520"/>
    <ellipse cx="168" cy="92" rx="4" ry="6" transform="rotate(0 168 92)" fill="#DAA520"/>
    
    <path d="M 170,100 Q 178,115 182,130 Q 185,145 182,160 L 177,155 Q 180,140 175,125 Q 170,110 165,100 Z" />
    <ellipse cx="180" cy="158" rx="4" ry="6" transform="rotate(-25 180 158)" fill="#DAA520"/>
    <ellipse cx="180" cy="148" rx="4" ry="6" transform="rotate(-20 180 148)" fill="#DAA520"/>
    <ellipse cx="179" cy="138" rx="4" ry="6" transform="rotate(-15 179 138)" fill="#DAA520"/>
    <ellipse cx="176" cy="128" rx="4" ry="6" transform="rotate(-10 176 128)" fill="#DAA520"/>
    <ellipse cx="172" cy="118" rx="4" ry="6" transform="rotate(-5 172 118)" fill="#DAA520"/>
    <ellipse cx="168" cy="108" rx="4" ry="6" transform="rotate(0 168 108)" fill="#DAA520"/>
  </g>
  
  <!-- Central circle background -->
  <circle cx="100" cy="100" r="55" fill="#1a1a1a" opacity="0.9"/>
  <circle cx="100" cy="100" r="55" fill="none" stroke="url(#goldGradient)" stroke-width="3" filter="url(#glow)"/>
  
  <!-- Card suits -->
  <g transform="translate(100, 130)">
    <!-- Diamond -->
    <path d="M -20,-5 L -15,0 L -20,5 L -25,0 Z" fill="#e53935"/>
    <!-- Club -->
    <g fill="#2e7d32">
      <circle cx="-5" cy="-2" r="3"/>
      <circle cx="-5" cy="2" r="3"/>
      <circle cx="-9" cy="0" r="3"/>
      <path d="M -5,3 L -5,6 L -8,6 L -2,6 L -5,6 Z"/>
    </g>
    <!-- Heart -->
    <path d="M 5,-2 Q 3,-5 0,-3 Q -3,-5 -5,-2 Q -5,2 0,6 Q 5,2 5,-2 Z" transform="translate(10, 0)" fill="#e53935"/>
    <!-- Spade -->
    <g fill="#2e7d32" transform="translate(25, 0)">
      <path d="M 0,-5 Q -4,0 -5,3 L -2,3 L -2,6 L 2,6 L 2,3 L 5,3 Q 4,0 0,-5 Z"/>
    </g>
  </g>
  
  <!-- Text: RAMOS POKER -->
  <text x="100" y="85" font-family="Arial, sans-serif" font-size="24" font-weight="bold" fill="white" text-anchor="middle" letter-spacing="2">RAMOS</text>
  <text x="100" y="110" font-family="Arial, sans-serif" font-size="20" font-weight="bold" fill="url(#goldGradient)" text-anchor="middle" letter-spacing="3">POKER</text>
</svg>
